<?xml version="1.0" encoding="utf-8"?>
<!-- Generator: Adobe Illustrator 26.0.2, SVG Export Plug-In . SVG Version: 6.00 Build 0)  -->
<svg version="1.1" id="Layer_1" xmlns="http://www.w3.org/2000/svg" xmlns:xlink="http://www.w3.org/1999/xlink" x="0px" y="0px"
	 viewBox="0 0 7000 3500" style="enable-background:new 0 0 7000 3500;" xml:space="preserve">
<style type="text/css">
	.st0{fill-rule:evenodd;clip-rule:evenodd;fill:#0B1622;}
	.st1{fill:#0B1622;}
	.st2{font-family:'DrukWide-Bold';}
	.st3{font-size:515.5955px;}
</style>
<g>
	<g>
		<g>
			<path class="st0" d="M423.01,1119.04c97.36,0,197.03-76.25,197.03-173.42c0-65.81-25.75-112.51-109.76-175.74
				C458.28,730.76,375,668.13,323.01,628.98c-38.56-28.98-57.51-60.64-54.71-99.46c3.4-48.07,34.4-81.1,87.44-93.1
				C156.85,417.5,76.67,678.11,207.29,776.36c66.35,49.96,188.81,142.06,255.16,192.02c25.86,19.41,33.84,38.93,33.84,68.05
				C496.3,1080.81,465.34,1114.56,423.01,1119.04z"/>
			<path class="st0" d="M317.84,1119.04c-76.11,0-136.88-49.93-136.88-113.4c0-50.53,36.05-85.93,83.53-85.93
				c40.63,0,74.85,33.57,74.85,79.35c0,30.9-21.03,56.89-49.23,66.59c-8.79,3.13-19.06,6.53-19.06,17.8
				C271.17,1105.02,294.62,1118.28,317.84,1119.04z"/>
			<path class="st0" d="M552.73,265.24c-97.33,0-196.98,76.3-196.98,173.42c0,65.81,25.72,112.54,109.73,175.74
				c52.01,39.15,135.29,101.78,187.28,140.9c38.56,28.98,57.48,60.64,54.7,99.49c-3.42,48.07-34.43,81.13-87.41,93.1
				c198.87,18.93,279.05-241.71,148.42-339.96c-66.35-49.93-188.84-142.09-255.22-191.99c-25.8-19.44-33.78-38.96-33.78-68.11
				C479.47,303.5,510.42,269.75,552.73,265.24z"/>
			<path class="st0" d="M657.9,265.24c76.14,0,136.91,49.93,136.91,113.4c0,50.47-36.07,85.95-83.53,85.95
				c-40.68,0-74.85-33.62-74.85-79.35c0-30.95,21.03-56.92,49.21-66.65c8.82-3.07,19.09-6.5,19.03-17.71
				C704.6,279.24,681.14,265.97,657.9,265.24z"/>
		</g>
	</g>
</g>
<text transform="matrix(1 0 0 1 1097.5137 840.4893)" class="st1 st2 st3">salonsymphony</text>
</svg>
