<?xml version="1.0" encoding="utf-8"?>
<!-- Generator: Adobe Illustrator 26.0.2, SVG Export Plug-In . SVG Version: 6.00 Build 0)  -->
<svg version="1.1" id="Layer_1" xmlns="http://www.w3.org/2000/svg" xmlns:xlink="http://www.w3.org/1999/xlink" x="0px" y="0px"
	 viewBox="0 0 7000 3500" style="enable-background:new 0 0 7000 3500;" xml:space="preserve">
<style type="text/css">
	.st0{fill:#FFFFFF;}
</style>
<g>
	<g>
		<g>
			<path class="st0" d="M385.31,1148.04c106.17,0,214.87-83.15,214.87-189.11c0-71.77-28.08-122.69-119.69-191.64
				c-56.71-42.66-147.54-110.96-204.22-153.65c-42.04-31.61-62.71-66.12-59.66-108.46c3.7-52.42,37.52-88.44,95.35-101.52
				C95.06,383.01,7.62,667.21,150.07,774.34c72.36,54.48,205.9,154.92,278.26,209.4c28.2,21.17,36.9,42.45,36.9,74.21
				C465.22,1106.35,431.47,1143.16,385.31,1148.04z"/>
			<path class="st0" d="M270.61,1148.04c-83,0-149.27-54.45-149.27-123.66c0-55.1,39.31-93.7,91.09-93.7
				c44.31,0,81.62,36.6,81.62,86.53c0,33.69-22.93,62.04-53.69,72.62c-9.59,3.41-20.79,7.12-20.79,19.41
				C219.72,1132.75,245.3,1147.21,270.61,1148.04z"/>
			<path class="st0" d="M526.76,216.98c-106.14,0-214.81,83.21-214.81,189.11c0,71.77,28.05,122.72,119.66,191.64
				c56.72,42.69,147.54,110.99,204.22,153.65c42.04,31.61,62.68,66.12,59.66,108.49c-3.73,52.42-37.55,88.47-95.32,101.52
				c216.87,20.64,304.31-263.58,161.86-370.72c-72.36-54.45-205.93-154.95-278.31-209.37c-28.14-21.2-36.84-42.49-36.84-74.27
				C446.87,258.7,480.63,221.89,526.76,216.98z"/>
			<path class="st0" d="M641.45,216.98c83.03,0,149.3,54.45,149.3,123.66c0,55.04-39.34,93.73-91.09,93.73
				c-44.37,0-81.62-36.66-81.62-86.53c0-33.75,22.93-62.07,53.66-72.68c9.61-3.35,20.82-7.09,20.76-19.32
				C692.38,232.24,666.8,217.78,641.45,216.98z"/>
		</g>
	</g>
</g>
</svg>
